<svg version="1.1" xmlns="http://www.w3.org/2000/svg" xmlns:xlink="http://www.w3.org/1999/xlink" width="129.1387" height="172.03269" viewBox="0,0,129.1387,172.03269"><defs><linearGradient x1="216.35326" y1="247.31627" x2="232.65816" y2="206.12809" gradientUnits="userSpaceOnUse" id="color-1"><stop offset="0" stop-color="#ffcc21"/><stop offset="1" stop-color="#ff7171"/></linearGradient><linearGradient x1="223.50621" y1="245.49724" x2="237.58306" y2="209.93738" gradientUnits="userSpaceOnUse" id="color-2"><stop offset="0" stop-color="#ff7171"/><stop offset="1" stop-color="#ff3159"/></linearGradient><linearGradient x1="237.57092" y1="237.39601" x2="239.82444" y2="206.89698" gradientUnits="userSpaceOnUse" id="color-3"><stop offset="0" stop-color="#ff3159"/><stop offset="1" stop-color="#ff2929"/></linearGradient><linearGradient x1="187.23703" y1="194.20089" x2="220.50638" y2="183.4602" gradientUnits="userSpaceOnUse" id="color-4"><stop offset="0" stop-color="#ffcc21"/><stop offset="1" stop-color="#ff7171"/></linearGradient><linearGradient x1="237.88484" y1="113.89891" x2="235.36225" y2="151.80271" gradientUnits="userSpaceOnUse" id="color-5"><stop offset="0" stop-color="#ffcc21"/><stop offset="1" stop-color="#ff7171"/></linearGradient><linearGradient x1="242.75649" y1="117.93949" x2="240.5786" y2="150.66376" gradientUnits="userSpaceOnUse" id="color-6"><stop offset="0" stop-color="#ff7171"/><stop offset="1" stop-color="#ff3159"/></linearGradient><linearGradient x1="250.67098" y1="129.38918" x2="241.19629" y2="153.84352" gradientUnits="userSpaceOnUse" id="color-7"><stop offset="0" stop-color="#ff3159"/><stop offset="1" stop-color="#ff2929"/></linearGradient><linearGradient x1="227.87791" y1="188.23626" x2="255.5402" y2="273.13745" gradientUnits="userSpaceOnUse" id="color-8"><stop offset="0" stop-color="#ffb7b7"/><stop offset="1" stop-color="#ffdfdf"/></linearGradient><linearGradient x1="212.80228" y1="233.78274" x2="209.55509" y2="186.24079" gradientUnits="userSpaceOnUse" id="color-9"><stop offset="0" stop-color="#fdff72"/><stop offset="1" stop-color="#ffc020"/></linearGradient><linearGradient x1="238.50232" y1="223.37708" x2="252.78635" y2="187.94818" gradientUnits="userSpaceOnUse" id="color-10"><stop offset="0" stop-color="#416cb5"/><stop offset="1" stop-color="#55a2ea"/></linearGradient><linearGradient x1="237.04353" y1="219.48947" x2="233.55715" y2="234.47006" gradientUnits="userSpaceOnUse" id="color-11"><stop offset="0" stop-color="#416cb5"/><stop offset="1" stop-color="#55a2ea"/></linearGradient><linearGradient x1="252.46952" y1="247.80917" x2="268.91729" y2="206.67783" gradientUnits="userSpaceOnUse" id="color-12"><stop offset="0" stop-color="#ffcc21"/><stop offset="1" stop-color="#ff7171"/></linearGradient><linearGradient x1="259.62872" y1="246.01498" x2="273.82893" y2="210.5042" gradientUnits="userSpaceOnUse" id="color-13"><stop offset="0" stop-color="#ff7171"/><stop offset="1" stop-color="#ff3159"/></linearGradient><linearGradient x1="273.72148" y1="237.96262" x2="276.08083" y2="207.47159" gradientUnits="userSpaceOnUse" id="color-14"><stop offset="0" stop-color="#ff3159"/><stop offset="1" stop-color="#ff2929"/></linearGradient><linearGradient x1="218.20016" y1="174.96438" x2="218.20016" y2="187.07549" gradientUnits="userSpaceOnUse" id="color-15"><stop offset="0" stop-color="#ffc27d"/><stop offset="1" stop-color="#ff9d7d"/></linearGradient><linearGradient x1="218.12141" y1="177.96438" x2="218.12141" y2="185.07549" gradientUnits="userSpaceOnUse" id="color-16"><stop offset="0" stop-color="#c56871"/><stop offset="1" stop-color="#993838"/></linearGradient><linearGradient x1="208.3609" y1="171.95547" x2="243.66076" y2="171.95547" gradientUnits="userSpaceOnUse" id="color-17"><stop offset="0" stop-color="#c56871"/><stop offset="1" stop-color="#993838"/></linearGradient></defs><g transform="translate(-187.23701,-112.50577)"><g data-paper-data="{&quot;isPaintingLayer&quot;:true}" fill-rule="nonzero" stroke="none" stroke-width="0" stroke-linecap="butt" stroke-linejoin="miter" stroke-miterlimit="10" stroke-dasharray="" stroke-dashoffset="0" style="mix-blend-mode: normal"><g data-paper-data="{&quot;index&quot;:null}"><path d="M245.96781,256.47643l-8.55139,-33.87811l30.6153,25.06793l6.84957,21.14279z" fill="#ffc0c7"/><path d="M254.45682,269.05023l-18.32415,-12.57616l-15.33289,-36.47738l30.0506,17.82733z" data-paper-data="{&quot;index&quot;:null}" fill="#fff3bc"/><path d="M249.33691,246.0144l-15.90287,-31.11191l35.44129,17.59579l11.3993,19.07852z" fill="#ff9d9d"/><g data-paper-data="{&quot;index&quot;:null}"><path d="M209.38545,198.52923c0.49561,-0.41634 1.05759,-0.74893 1.71278,-0.96525c0.54664,-0.18048 1.14231,-0.26761 1.77412,-0.28222l26.34771,62.69307l-36.36745,-21.47873z" fill="url(#color-1)"/><path d="M209.96739,198.1011c0.34462,-0.21953 0.71935,-0.40126 1.13084,-0.53712c0.73785,-0.24361 1.56505,-0.31715 2.44984,-0.27181l44.31804,54.61343l-37.34074,-8.35578z" fill="url(#color-2)"/><path d="M209.83054,198.19131c0.38174,-0.26025 0.80109,-0.47328 1.26769,-0.62733c0.64538,-0.21308 1.35912,-0.29604 2.11996,-0.28315l61.52916,34.66816l-36.44211,3.25312z" fill="url(#color-3)"/></g></g><path d="M240.09379,277.01081l7.7588,-5.8623l7.25074,-13.38575l-6.89577,-18.42942l12.75414,17.69713l-6.01394,19.51606z" fill="#b8777f"/><path d="M220.23665,276.58224l7.7588,-5.8623l7.25074,-13.38575l-6.89577,-18.42942l12.75413,17.69713l-6.01394,19.51606z" fill="#b8777f"/><path d="M205.75346,194.65932c-9.18708,2.96596 -18.51644,-0.45843 -18.51644,-0.45843c0,0 5.56583,-8.23316 14.75292,-11.19912c9.18708,-2.96596 12.9506,8.69159 3.76352,11.65755z" fill="url(#color-4)"/><g data-paper-data="{&quot;index&quot;:null}"><path d="M224.18205,115.76445l36.07294,-3.25868l-43.47379,38.87048c-0.48404,-0.24375 -0.91341,-0.53039 -1.27045,-0.87129c-0.42794,-0.4086 -0.74092,-0.87298 -0.97165,-1.37782z" fill="url(#color-5)"/><path d="M239.73103,118.35138l31.99906,7.26474l-54.42163,26.00067c-0.70206,-0.29038 -1.31578,-0.65167 -1.79772,-1.11182c-0.26878,-0.25663 -0.49219,-0.53526 -0.67837,-0.83209z" fill="url(#color-6)"/><path d="M250.43268,131.35878l27.03215,15.92667l-60.41609,4.21876c-0.59411,-0.26992 -1.11647,-0.59677 -1.538,-0.99925c-0.30477,-0.29099 -0.55123,-0.61028 -0.75119,-0.95231z" fill="url(#color-7)"/></g><g><g><g data-paper-data="{&quot;index&quot;:null}"><path d="M282.7673,280.9088l-15.88895,-24.45906l-9.1777,-41.1634l26.50073,37.88115z" fill="#ff9d9d"/><path d="M303.56657,284.53846l-30.51161,-32.82092l-16.37536,-37.88162l34.9534,34.4507z" fill="#ffc0c7"/><path d="M282.88128,254.61008l-23.96444,-38.72851l38.58231,31.33964l16.25449,24.33693z" data-paper-data="{&quot;index&quot;:null}" fill="#fff3bc"/></g><path d="M284.7625,247.13904c0,0 -58.79891,9.05607 -69.64077,-7.13933c-10.84186,-16.1954 -10.51299,-36.94927 0.73452,-46.35506c11.24751,-9.40579 29.15448,-3.90174 39.99634,12.29367c10.84186,16.1954 28.9099,41.20073 28.9099,41.20073z" fill="url(#color-8)"/></g><g data-paper-data="{&quot;index&quot;:null}" fill="url(#color-9)"><path d="M220.18985,225.39232c0,0 -7.55403,-4.52909 -9.94412,-10.47047c-2.40144,-5.9696 -2.43357,-13.55543 -0.12807,-15.16746c1.65342,-1.10498 2.70846,7.31032 4.13115,14.07044c1.37141,6.51647 5.94105,11.5675 5.94105,11.5675z"/></g><g><g><path d="M247.81795,211.93171c-1.35334,5.51816 -5.88403,12.82889 -5.88403,12.82889l-6.86319,-2.76707c0,0 5.90629,-6.56196 8.62724,-11.45112c2.72095,-4.88916 1.5981,-13.77802 4.85679,-12.77777c2.26692,0.77605 0.61653,8.64891 -0.73681,14.16706z" fill="url(#color-10)"/><path d="M240.9574,228.98355c-1.82056,3.24251 -8.01744,6.16208 -10.91254,4.53657c-2.8951,-1.62551 -1.3921,-7.18053 0.42846,-10.42304c1.82056,-3.24251 5.64336,-4.55336 8.53847,-2.92785c2.8951,1.62551 3.76618,5.57181 1.94562,8.81432z" fill="url(#color-11)"/></g><path d="M231.10631,228.01404c-0.37095,-0.1089 -0.52032,-0.71268 -0.33363,-1.34859c0.18669,-0.63591 0.63873,-1.06313 1.00968,-0.95423c0.37095,0.1089 -0.30511,2.41172 -0.67605,2.30282z" fill="#fdff72"/><path d="M236.37679,231.51307c-0.52114,0.40944 -1.13723,0.49491 -1.37607,0.19091c-0.23884,-0.304 1.64838,-1.7867 1.88723,-1.4827c0.23884,0.304 0.00999,0.88236 -0.51116,1.2918z" fill="#fdff72"/></g></g><path d="M265.16668,171.43829l-15.61029,12.80221l3.14899,13.22719c0,0 -23.63904,4.36565 -29.347,4.36565c-18.50075,0 -33.49858,-13.84086 -33.49858,-30.91441c0,-5.16622 3.80107,-14.31683 3.80107,-14.31683l-4.29542,-4.66984l11.75812,-5.59755l-2.30183,-7.61677l17.65056,2.04346c0,0 2.11105,-0.4558 2.97918,-0.54887c1.28163,-0.13738 2.58533,-0.20801 3.9069,-0.20801c18.50075,0 41.80831,31.43376 41.80831,31.43376z" fill="#ffdfdf"/><g><path d="M282.05208,257.07207l-8.43375,-33.90759l30.5281,25.17404l6.77615,21.16644z" fill="#ffc0c7"/><path d="M290.49741,269.67526l-18.28039,-12.63969l-15.20618,-36.53038l29.98854,17.93153z" data-paper-data="{&quot;index&quot;:null}" fill="#fff3bc"/><path d="M285.45749,246.6218l-15.79478,-31.16692l35.38,17.7187l11.33301,19.11798z" fill="#ff9d9d"/><g data-paper-data="{&quot;index&quot;:null}"><path d="M245.67109,198.99824c0.49704,-0.41462 1.06018,-0.74525 1.71612,-0.95929c0.54726,-0.17858 1.14323,-0.26364 1.77509,-0.27606l26.12994,62.78415l-36.29267,-21.60483z" fill="url(#color-12)"/><path d="M246.25451,198.57213c0.34538,-0.21833 0.72073,-0.39876 1.1327,-0.53319c0.73869,-0.24104 1.56615,-0.31172 2.45078,-0.2633l44.1282,54.76694l-37.31151,-8.48535z" fill="url(#color-13)"/><path d="M246.11735,198.66186c0.38265,-0.25892 0.80272,-0.47049 1.26986,-0.62292c0.64611,-0.21083 1.36014,-0.29132 2.12092,-0.27579l61.40846,34.88152l-36.45318,3.1266z" fill="url(#color-14)"/></g></g><g><g><path d="M243.82836,175.52196l-10.78221,13.19158l-21.41385,0.67108l-2.29362,-12.97098z" data-paper-data="{&quot;index&quot;:null}" fill="#ffffff"/><path d="M243.71725,175.63307l-3.16737,3.87515l-30.58483,1.18709l-0.73747,-4.17056z" data-paper-data="{&quot;index&quot;:null}" fill="#f5f7ff"/></g><g><path d="M213.36682,187.07549v-12.11111h9.66667v12.11111z" fill="url(#color-15)"/><path d="M216.45016,185.07549l-3.03093,-3.99483l0.03887,-6.40199l9.47743,1.18254l0.01968,5.73289l-3.16253,3.4814z" fill="url(#color-16)"/></g><path d="M208.3609,176.7624l2.00803,-3.81683l16.29183,-4.13035l20.3676,6.94101z" fill="url(#color-17)"/></g></g></g></svg>